<?xml version="1.0" encoding="utf-8"?>
<svg xmlns="http://www.w3.org/2000/svg" width="696" height="468" viewBox="0 0 696 468" fill="none">
<g clip-path="url(#clip0_302_1380)">
<path d="M244.645 234.54H292.797C305.659 234.537 317.993 229.424 327.087 220.328C336.181 211.232 341.29 198.895 341.29 186.033C341.29 173.169 346.4 160.83 355.497 151.733C364.594 142.637 376.932 137.526 389.797 137.526H390.152C403.012 137.522 415.344 132.412 424.437 123.318C433.531 114.225 438.641 101.893 438.645 89.0332V88.3225C438.647 75.4583 443.758 63.1214 452.855 54.025C461.951 44.9285 474.288 39.8174 487.152 39.8154C493.523 39.8136 499.832 41.0669 505.719 43.5038C511.606 45.9406 516.955 49.5134 521.461 54.0179C525.967 58.5223 529.541 63.8704 531.979 69.7564C534.418 75.6425 535.673 81.9513 535.673 88.3225V331.036C535.673 356.715 525.472 381.342 507.315 399.5C489.157 417.657 464.53 427.858 438.851 427.858H244.645C231.922 427.858 219.325 425.346 207.575 420.466C195.825 415.586 185.155 408.434 176.176 399.421C167.197 390.407 160.086 379.71 155.251 367.942C150.415 356.174 147.952 343.567 148 330.844C148.09 305.271 158.312 280.777 176.427 262.726C194.542 244.676 219.072 234.54 244.645 234.54Z" fill="#6CE975"/>
<path d="M290.21 168.303L281.597 118.879C280.691 113.651 278.755 108.655 275.903 104.18C273.051 99.7051 269.339 95.8413 264.982 92.8124C260.624 89.7836 255.71 87.6498 250.522 86.535C245.334 85.4202 239.976 85.3465 234.76 86.3181L233.161 86.6166C222.927 88.5226 213.835 94.3332 207.806 102.82C201.778 111.307 199.286 121.805 200.856 132.097L200.991 132.985L197.438 133.532L197.296 132.644C195.58 121.422 198.297 109.972 204.871 100.717C211.444 91.4613 221.36 85.1256 232.521 83.0493L234.127 82.7508C239.817 81.6925 245.661 81.7745 251.319 82.9921C256.977 84.2097 262.337 86.5388 267.088 89.844C271.839 93.1494 275.887 97.3651 278.996 102.247C282.105 107.129 284.213 112.579 285.2 118.282L293.791 167.741L290.21 168.303Z" fill="#B1FF05" stroke="#001E2B" stroke-miterlimit="10"/>
<path d="M429.939 222.46C429.939 214.112 426.623 206.107 420.721 200.204C414.818 194.302 406.813 190.986 398.466 190.986C398.463 177.1 393.87 163.604 385.402 152.6C376.933 141.596 365.064 133.699 351.643 130.14C338.22 126.581 323.999 127.559 311.19 132.921C298.382 138.283 287.704 147.73 280.822 159.79C279.092 159.601 277.354 159.507 275.613 159.505C263.091 159.505 251.082 164.48 242.228 173.334C233.374 182.189 228.399 194.197 228.399 206.719C228.399 219.241 233.374 231.25 242.228 240.104C251.082 248.959 263.091 253.933 275.613 253.933H429.939C432.034 253.977 434.116 253.603 436.065 252.832C438.012 252.061 439.788 250.909 441.285 249.444C442.781 247.978 443.971 246.228 444.783 244.297C445.596 242.365 446.013 240.291 446.013 238.196C446.013 236.101 445.596 234.027 444.783 232.096C443.971 230.164 442.781 228.414 441.285 226.949C439.788 225.483 438.012 224.331 436.065 223.56C434.116 222.789 432.034 222.415 429.939 222.46Z" fill="#001E2B"/>
<path d="M429.939 222.46C429.939 214.112 426.623 206.107 420.721 200.204C414.818 194.302 406.813 190.986 398.466 190.986C398.463 177.1 393.87 163.604 385.402 152.6C376.933 141.596 365.064 133.699 351.643 130.14C338.22 126.581 323.999 127.559 311.19 132.921C298.382 138.283 287.704 147.73 280.822 159.79C279.092 159.601 277.354 159.507 275.613 159.505C263.091 159.505 251.082 164.48 242.228 173.334C233.374 182.189 228.399 194.197 228.399 206.719C228.399 219.241 233.374 231.25 242.228 240.104C251.082 248.959 263.091 253.933 275.613 253.933H429.939C432.034 253.977 434.116 253.603 436.065 252.832C438.012 252.061 439.788 250.909 441.285 249.444C442.781 247.978 443.971 246.228 444.783 244.297C445.596 242.365 446.013 240.291 446.013 238.196C446.013 236.101 445.596 234.027 444.783 232.096C443.971 230.164 442.781 228.414 441.285 226.949C439.788 225.483 438.012 224.331 436.065 223.56C434.116 222.789 432.034 222.415 429.939 222.46Z" stroke="#001E2B" stroke-miterlimit="10"/>
<path d="M429.939 213.932C429.939 205.584 426.623 197.579 420.721 191.677C414.818 185.774 406.813 182.458 398.466 182.458C398.463 168.572 393.87 155.077 385.402 144.073C376.933 133.068 365.064 125.172 351.643 121.612C338.22 118.053 323.999 119.03 311.19 124.393C298.382 129.756 287.704 139.202 280.822 151.262C279.092 151.074 277.354 150.979 275.613 150.978C263.091 150.978 251.082 155.952 242.228 164.807C233.374 173.661 228.399 185.67 228.399 198.192C228.399 210.713 233.374 222.722 242.228 231.577C251.082 240.431 263.091 245.405 275.613 245.405H429.939C432.034 245.449 434.116 245.076 436.065 244.305C438.012 243.534 439.788 242.382 441.285 240.916C442.781 239.45 443.971 237.701 444.783 235.769C445.596 233.838 446.013 231.764 446.013 229.669C446.013 227.573 445.596 225.499 444.783 223.568C443.971 221.636 442.781 219.886 441.285 218.421C439.788 216.955 438.012 215.803 436.065 215.032C434.116 214.262 432.034 213.887 429.939 213.932Z" fill="white"/>
<path d="M429.939 213.932C429.939 205.584 426.623 197.579 420.721 191.677C414.818 185.774 406.813 182.458 398.466 182.458C398.463 168.572 393.87 155.077 385.402 144.073C376.933 133.068 365.064 125.172 351.643 121.612C338.22 118.053 323.999 119.03 311.19 124.393C298.382 129.756 287.704 139.202 280.822 151.262C279.092 151.074 277.354 150.979 275.613 150.978C263.091 150.978 251.082 155.952 242.228 164.807C233.374 173.661 228.399 185.67 228.399 198.192C228.399 210.713 233.374 222.722 242.228 231.577C251.082 240.431 263.091 245.405 275.613 245.405H429.939C432.034 245.449 434.116 245.076 436.065 244.305C438.012 243.534 439.788 242.382 441.285 240.916C442.781 239.45 443.971 237.701 444.783 235.769C445.596 233.838 446.013 231.764 446.013 229.669C446.013 227.573 445.596 225.499 444.783 223.568C443.971 221.636 442.781 219.886 441.285 218.421C439.788 216.955 438.012 215.803 436.065 215.032C434.116 214.262 432.034 213.887 429.939 213.932Z" stroke="#001E2B" stroke-miterlimit="10"/>
<path d="M307.599 224.414C307.6 225.593 307.251 226.747 306.597 227.729C305.942 228.71 305.011 229.475 303.921 229.927C302.832 230.38 301.632 230.499 300.475 230.268C299.318 230.039 298.255 229.47 297.42 228.636C296.586 227.802 296.018 226.739 295.789 225.582C295.559 224.425 295.677 223.225 296.13 222.136C296.582 221.046 297.347 220.115 298.329 219.46C299.31 218.806 300.464 218.457 301.644 218.459C303.223 218.459 304.738 219.086 305.855 220.202C306.971 221.319 307.599 222.834 307.599 224.414ZM301.644 221.528C301.073 221.528 300.515 221.698 300.04 222.014C299.566 222.331 299.196 222.782 298.978 223.309C298.76 223.836 298.702 224.416 298.814 224.976C298.925 225.536 299.2 226.05 299.603 226.454C300.007 226.857 300.521 227.132 301.081 227.243C301.641 227.355 302.221 227.297 302.748 227.079C303.275 226.861 303.726 226.491 304.043 226.017C304.36 225.542 304.529 224.984 304.529 224.414C304.527 223.649 304.222 222.916 303.682 222.375C303.141 221.835 302.408 221.531 301.644 221.528Z" fill="#B1FF05" stroke="#001E2B" stroke-miterlimit="10"/>
<path d="M337.537 345.568L331.106 344.012C325.677 342.694 320.787 339.736 317.099 335.54C313.412 331.344 311.107 326.114 310.498 320.561L299.931 224.911C299.881 224.464 300.011 224.014 300.292 223.663C300.573 223.311 300.983 223.085 301.43 223.035C301.877 222.987 302.326 223.118 302.677 223.398C303.028 223.68 303.254 224.088 303.306 224.535L313.866 320.227C314.411 325.081 316.434 329.651 319.661 333.317C322.888 336.984 327.163 339.571 331.909 340.729L338.304 342.292L337.537 345.568Z" fill="#B1FF05" stroke="#001E2B" stroke-miterlimit="10"/>
<path d="M507.323 213.143L349.006 206.369L343.98 323.849L502.297 330.622L507.323 213.143Z" fill="#001E2B"/>
<path d="M514.694 206.308L356.377 199.535L351.351 317.013L509.667 323.788L514.694 206.308Z" fill="#D7F4EB" stroke="#001E2B" stroke-miterlimit="10"/>
<path d="M446.012 236.064L446.999 236.106C448.918 236.188 450.725 237.029 452.024 238.444C453.323 239.859 454.006 241.731 453.924 243.65L451.228 306.681L435.735 306.018L438.433 242.988C438.473 242.034 438.702 241.099 439.106 240.234C439.509 239.37 440.079 238.594 440.784 237.95C441.488 237.307 442.312 236.809 443.21 236.485C444.107 236.161 445.059 236.018 446.012 236.064Z" fill="#00ED64"/>
<path d="M470.919 223.59L471.906 223.632C473.825 223.715 475.632 224.555 476.931 225.97C478.23 227.385 478.913 229.257 478.831 231.176L475.556 307.726L460.1 307.064L463.375 230.515C463.457 228.597 464.298 226.789 465.713 225.49C467.128 224.191 469.001 223.508 470.919 223.59Z" fill="#008A67"/>
<path d="M420.838 254.8L421.825 254.842C422.775 254.882 423.708 255.109 424.572 255.509C425.435 255.91 426.211 256.477 426.854 257.178C427.498 257.879 427.997 258.699 428.324 259.593C428.65 260.487 428.797 261.436 428.757 262.387L426.906 305.645L411.442 304.984L413.294 261.725C413.334 260.775 413.561 259.842 413.963 258.98C414.364 258.118 414.931 257.343 415.631 256.7C416.332 256.057 417.152 255.558 418.045 255.232C418.939 254.906 419.887 254.759 420.838 254.8Z" fill="#B1FF05"/>
<path d="M395.113 264.646L396.1 264.688C398.019 264.77 399.827 265.611 401.125 267.026C402.424 268.441 403.108 270.313 403.025 272.232L401.642 304.564L386.186 303.903L387.569 271.571C387.652 269.652 388.492 267.844 389.907 266.545C391.322 265.247 393.194 264.563 395.113 264.646Z" fill="white"/>
<path d="M498.87 308.736L366.957 303.087L370.546 219.304" stroke="#001E2B" stroke-miterlimit="10"/>
<path d="M429.711 221.825L387.197 220.006L386.967 225.388L429.481 227.206L429.711 221.825Z" fill="#D7F4EB"/>
<path d="M414.645 230.163L386.813 228.972L386.583 234.353L414.415 235.544L414.645 230.163Z" fill="#D7F4EB"/>
<path d="M538.886 301.596L382.009 279.411L365.547 395.821L522.424 418.006L538.886 301.596Z" fill="#001E2B"/>
<path d="M177.256 290.374L182.408 322.743C184.057 333.061 206.115 338.128 231.676 334.056C257.237 329.984 276.623 318.308 274.988 307.99C276.637 318.308 257.223 329.984 231.676 334.056C206.129 338.128 184.064 333.061 182.408 322.743L183.297 328.3C184.952 338.625 206.982 343.692 232.564 339.62C258.147 335.548 277.518 323.873 275.877 313.547L269.836 275.628L177.256 290.374Z" fill="#001E2B"/>
<path d="M177.029 288.952L182.224 321.577C183.873 331.902 205.93 336.969 231.491 332.897C257.052 328.825 276.452 317.15 274.839 306.824L269.645 274.2L177.029 288.952Z" fill="#00ED64" stroke="#001E2B" stroke-miterlimit="10"/>
<path d="M226.283 300.277C251.848 296.205 271.239 284.534 269.595 274.209C267.95 263.884 245.893 258.814 220.328 262.886C194.763 266.958 175.372 278.629 177.016 288.955C178.661 299.28 200.718 304.349 226.283 300.277Z" fill="white" stroke="#001E2B" stroke-miterlimit="10"/>
<path d="M223.308 281.578C248.873 277.506 268.264 265.835 266.62 255.51C264.975 245.185 242.918 240.115 217.352 244.187C191.788 248.259 172.397 259.93 174.041 270.256C175.686 280.581 197.743 285.65 223.308 281.578Z" fill="#B1FF05" stroke="#001E2B" stroke-width="1.48" stroke-miterlimit="10"/>
<path d="M213.924 276.467L215.509 286.352C215.822 288.32 219.822 289.315 224.449 288.576C229.075 287.837 232.557 285.648 232.265 283.687L230.659 273.795L213.924 276.467Z" fill="#B1FF05" stroke="#001E2B" stroke-miterlimit="10"/>
<path d="M168.003 232.337L174.051 270.242C175.714 280.581 197.743 285.648 223.325 281.612C248.908 277.575 268.279 265.864 266.673 255.539L260.626 217.62L168.003 232.337Z" fill="#00ED64" stroke="#001E2B" stroke-miterlimit="10"/>
<path d="M217.263 243.661C242.828 239.589 262.219 227.919 260.574 217.593C258.93 207.268 236.872 202.199 211.308 206.271C185.743 210.343 166.352 222.014 167.996 232.339C169.641 242.664 191.698 247.734 217.263 243.661Z" fill="white" stroke="#001E2B" stroke-miterlimit="10"/>
<path d="M204.85 219.574L206.427 229.452C206.74 231.42 210.741 232.415 215.36 231.683C219.979 230.951 223.475 228.756 223.177 226.787L221.599 216.902L204.85 219.574Z" fill="#B1FF05" stroke="#001E2B" stroke-miterlimit="10"/>
<path d="M158.986 175.729L165.055 213.641C166.704 223.966 188.761 229.033 214.323 224.961C239.884 220.889 259.284 209.213 257.67 198.888L251.63 160.969L158.986 175.729Z" fill="#00ED64" stroke="#001E2B" stroke-miterlimit="10"/>
<path d="M208.249 187.045C233.814 182.973 253.205 171.302 251.561 160.977C249.916 150.651 227.859 145.582 202.293 149.654C176.729 153.726 157.338 165.397 158.982 175.722C160.627 186.047 182.684 191.117 208.249 187.045Z" fill="#B1FF05" stroke="#001E2B" stroke-miterlimit="10"/>
<path d="M254.543 179.659C256.185 189.984 236.778 201.688 211.231 205.731C185.684 209.775 163.619 204.737 161.963 194.411" stroke="#001E2B" stroke-miterlimit="10"/>
<path d="M263.718 237.255C265.367 247.58 245.952 259.284 220.413 263.328C194.873 267.371 172.801 262.333 171.138 252.007" stroke="#001E2B" stroke-miterlimit="10"/>
<path d="M272.899 294.851C274.541 305.176 255.134 316.88 229.587 320.923C204.04 324.967 181.975 319.928 180.319 309.603" fill="#00ED64"/>
<path d="M272.899 294.851C274.541 305.176 255.134 316.88 229.587 320.923C204.04 324.967 181.975 319.928 180.319 309.603" stroke="#001E2B" stroke-miterlimit="10"/>
<path d="M220.824 282.223L221.876 288.817C221.876 288.817 215.793 289.038 215.367 286.358L214.798 282.898L220.824 282.223Z" fill="#001E2B" stroke="#001E2B" stroke-width="0.52" stroke-miterlimit="10"/>
<path d="M211.16 225.352L212.212 231.953C212.212 231.953 206.129 232.166 205.703 229.487L205.148 226.027L211.16 225.352Z" fill="#001E2B" stroke="#001E2B" stroke-width="0.52" stroke-miterlimit="10"/>
<path d="M391.138 272.113L374.306 387.771L530.413 410.489L547.245 294.831L391.138 272.113Z" fill="white"/>
<path d="M391.452 272.523L546.851 295.113L530.116 410.099L374.689 387.494L391.424 272.537L391.452 272.523ZM390.82 271.734L373.914 388.077L530.72 410.902L547.661 294.545L390.848 271.72L390.82 271.734Z" fill="#001E2B"/>
<path d="M450.263 352.127L466.025 359.46C467.691 355.125 468.586 350.531 468.668 345.887L451.365 344.665C451.422 347.196 451.05 349.72 450.263 352.127Z" fill="#008A67"/>
<path d="M450.264 352.127C449.024 355.933 446.791 359.339 443.793 361.992C440.796 364.644 437.144 366.448 433.215 367.216C429.287 367.983 425.225 367.686 421.449 366.356C417.674 365.026 414.322 362.711 411.743 359.651C409.163 356.591 407.447 352.896 406.774 348.95C406.102 345.005 406.496 340.951 407.916 337.209C409.336 333.466 411.731 330.171 414.852 327.666C417.974 325.159 421.708 323.534 425.669 322.956L421.135 306.171C414.347 307.517 408.027 310.609 402.799 315.144C397.571 319.678 393.616 325.497 391.324 332.027C389.033 338.557 388.483 345.571 389.731 352.378C390.978 359.185 393.978 365.549 398.436 370.843C402.894 376.135 408.656 380.174 415.152 382.561C421.647 384.947 428.653 385.598 435.478 384.45C442.302 383.3 448.709 380.393 454.066 376.012C459.423 371.631 463.545 365.929 466.025 359.468L450.264 352.127Z" fill="#D7F4EB"/>
<path d="M445.872 330.453L458.948 319.083C454.345 313.784 448.423 309.797 441.782 307.525C435.142 305.254 428.018 304.779 421.135 306.149L425.669 322.934C429.397 322.389 433.202 322.791 436.733 324.105C440.265 325.419 443.408 327.602 445.872 330.453Z" fill="#00ED64"/>
<path d="M451.365 344.665L468.668 345.887C468.862 336.063 465.397 326.517 458.947 319.104L445.872 330.474C449.308 334.415 451.252 339.437 451.365 344.665Z" fill="#B1FF05"/>
<path d="M529.19 358.909L487.046 352.776L486.391 357.277L528.535 363.41L529.19 358.909Z" fill="#D7F4EB"/>
<path d="M511.814 301.468L414.475 287.303L413.515 293.906L510.854 308.071L511.814 301.468Z" fill="#D7F4EB"/>
<path d="M527.55 370.166L485.406 364.034L484.751 368.534L526.895 374.667L527.55 370.166Z" fill="#D7F4EB"/>
<path d="M525.918 381.419L483.774 375.285L483.119 379.786L525.263 385.919L525.918 381.419Z" fill="#D7F4EB"/>
<path d="M524.271 392.676L482.127 386.543L481.472 391.044L523.616 397.177L524.271 392.676Z" fill="#D7F4EB"/>
<path d="M480.33 356.377C481.585 356.377 482.604 355.358 482.604 354.103C482.604 352.847 481.585 351.829 480.33 351.829C479.074 351.829 478.056 352.847 478.056 354.103C478.056 355.358 479.074 356.377 480.33 356.377Z" fill="#00ED64"/>
<path d="M478.695 367.64C479.951 367.64 480.969 366.621 480.969 365.366C480.969 364.11 479.951 363.092 478.695 363.092C477.44 363.092 476.421 364.11 476.421 365.366C476.421 366.621 477.44 367.64 478.695 367.64Z" fill="#B1FF05"/>
<path d="M477.054 378.896C478.309 378.896 479.328 377.878 479.328 376.622C479.328 375.366 478.309 374.348 477.054 374.348C475.798 374.348 474.78 375.366 474.78 376.622C474.78 377.878 475.798 378.896 477.054 378.896Z" fill="#008A67"/>
<path d="M475.412 390.152C476.668 390.152 477.686 389.134 477.686 387.878C477.686 386.622 476.668 385.604 475.412 385.604C474.156 385.604 473.138 386.622 473.138 387.878C473.138 389.134 474.156 390.152 475.412 390.152Z" fill="#D7F4EB"/>
<path d="M197.522 175.308C208.533 173.554 216.97 169.06 216.366 165.269C215.762 161.479 206.346 159.828 195.335 161.582C184.324 163.336 175.887 167.83 176.491 171.621C177.095 175.411 186.51 177.062 197.522 175.308Z" fill="#001E2B"/>
<path d="M205.596 172.271C213.891 170.95 220.045 166.306 219.344 161.899C218.642 157.493 211.349 154.991 203.055 156.312C194.76 157.634 188.606 162.277 189.307 166.683C190.009 171.091 197.302 173.592 205.596 172.271Z" fill="white"/>
<path d="M189.138 166.661C189.849 171.166 197.168 173.767 205.482 172.424C213.797 171.081 219.922 166.377 219.204 161.879L218.494 157.387C217.783 152.882 210.471 150.281 202.149 151.624C193.828 152.967 187.71 157.672 188.427 162.177L189.138 166.661Z" fill="#B1FF05" stroke="#001E2B" stroke-miterlimit="10"/>
<path d="M196.379 137.356L196.195 136.233C196.051 135.318 196.276 134.384 196.819 133.634C197.362 132.884 198.18 132.38 199.094 132.232C200.009 132.086 200.944 132.31 201.694 132.854C202.444 133.397 202.948 134.217 203.095 135.131L203.272 136.261C209.668 136.375 214.877 139.658 215.637 144.44C215.637 144.661 215.694 144.888 215.708 145.151L217.641 157.516C218.288 161.574 212.468 165.88 204.637 167.131C196.806 168.381 189.934 166.093 189.287 162.035L187.283 149.642C187.234 149.429 187.184 149.209 187.148 148.981C186.374 144.199 190.36 139.487 196.379 137.356Z" fill="#B1FF05" stroke="#001E2B" stroke-miterlimit="10"/>
<path d="M200.65 130.959L200.884 132.381C200.451 132.849 199.857 133.136 199.221 133.184C198.612 133.336 197.969 133.27 197.402 132.999L197.161 131.485C197.717 131.74 198.343 131.801 198.937 131.656C199.566 131.603 200.163 131.36 200.65 130.959Z" fill="#001E2B"/>
<path d="M194.688 166.718L191.938 149.472C191.938 149.472 190.232 140.433 197.09 137.512C197.843 137.192 196.678 137.292 197.637 137.142C197.637 137.142 197.999 136.887 196.379 137.363C194.069 138.101 191.974 139.391 190.275 141.122C186.011 145.165 187.006 148.228 187.809 153.295C188.612 158.362 189.351 162.533 189.351 162.533C189.351 162.533 189.927 165.276 194.688 166.718Z" fill="#001E2B"/>
<path d="M196.741 172.347L195.896 167.038C194.167 166.625 192.528 165.903 191.056 164.906C189.564 163.329 189.543 163.421 188.889 159.278C188.522 159.872 188.341 160.563 188.37 161.261C188.398 161.928 188.479 162.59 188.612 163.244C189.01 165.709 189.323 167.372 189.323 167.372C189.936 168.801 191.003 169.99 192.357 170.755C193.717 171.532 195.2 172.07 196.741 172.347Z" fill="#001E2B"/>
<path d="M196.379 137.355L196.152 135.565C197.474 136.936 201.361 136.616 202.988 134.662L203.272 136.261C203.272 136.261 202.633 137.917 200.124 138.279C197.388 138.67 196.379 137.355 196.379 137.355Z" fill="#001E2B"/>
<path d="M380.864 280.212L390.848 271.72L373.914 388.077L363.922 396.576L380.864 280.212Z" fill="#001E2B"/>
<path d="M377.495 349.435C378.705 341.123 376.105 333.865 371.689 333.222C367.274 332.58 362.714 338.796 361.504 347.107C360.295 355.419 362.894 362.677 367.31 363.32C371.726 363.962 376.286 357.746 377.495 349.435Z" fill="white"/>
<path d="M367.249 363.49C371.768 364.15 376.402 357.94 377.617 349.625C378.832 341.311 376.146 334.034 371.633 333.38L367.135 332.72C362.623 332.066 357.982 338.277 356.774 346.591C355.566 354.905 358.238 362.182 362.751 362.836L367.249 363.49Z" fill="#B1FF05" stroke="#001E2B" stroke-miterlimit="10"/>
<path d="M341.439 347.856L340.309 347.685C339.855 347.62 339.418 347.466 339.023 347.231C338.629 346.997 338.284 346.687 338.01 346.319C337.735 345.952 337.536 345.533 337.423 345.089C337.31 344.644 337.286 344.181 337.353 343.727C337.49 342.811 337.984 341.987 338.727 341.434C339.469 340.882 340.401 340.646 341.318 340.778L342.448 340.941C344.459 334.894 349.149 330.879 353.938 331.575C354.166 331.609 354.386 331.651 354.599 331.703L367.014 333.537C371.086 334.127 373.459 340.97 372.315 348.815C371.171 356.66 366.95 362.544 362.878 361.955L350.456 360.171L349.781 360.107C344.992 359.41 341.645 354.223 341.439 347.856Z" fill="#B1FF05" stroke="#001E2B" stroke-miterlimit="10"/>
<path d="M336.87 341.816L338.291 342.136C338.568 342.71 338.614 343.369 338.419 343.976C338.334 344.585 338.043 345.147 337.595 345.568L336.095 345.234C336.539 344.81 336.826 344.25 336.912 343.642C337.079 343.042 337.065 342.407 336.87 341.816Z" fill="#001E2B"/>
<path d="M368.954 358.217L351.679 355.701C351.679 355.701 342.54 354.635 341.794 347.209C341.716 346.406 341.46 347.55 341.602 346.584C341.602 346.584 341.467 346.157 341.438 347.856C341.455 350.282 342.062 352.667 343.208 354.806C345.795 360.093 349.049 360.05 354.088 360.782C359.126 361.514 363.326 362.054 363.326 362.054C363.326 362.054 366.161 362.338 368.954 358.217Z" fill="#001E2B"/>
<path d="M374.938 357.933L369.622 357.158C368.706 358.685 367.519 360.031 366.119 361.131C364.172 362.09 364.257 362.133 360.107 361.521C360.562 362.05 361.166 362.43 361.841 362.609C362.487 362.777 363.145 362.896 363.809 362.964C366.282 363.326 367.959 363.532 367.959 363.532C369.522 363.383 370.991 362.722 372.138 361.649C373.274 360.577 374.221 359.321 374.938 357.933Z" fill="#001E2B"/>
<path d="M341.438 347.856C341.438 347.856 343.087 347.323 343.528 344.602C343.684 343.951 343.666 343.27 343.477 342.627C343.288 341.985 342.932 341.404 342.448 340.942L341.026 340.75C342.22 343.315 341.552 346.741 339.847 347.593L341.438 347.856Z" fill="#001E2B"/>
<path d="M363.922 396.576L373.914 388.077L530.72 410.909L520.735 419.401L363.922 396.576Z" fill="#001E2B"/>
<path d="M356.035 199.172L348.999 206.378L343.968 323.858L351.337 317.022L356.035 199.172Z" fill="#001E2B"/>
<path d="M330.218 221.707L329.209 245.96L354.5 244.802L349.085 222.51L330.218 221.707Z" fill="#001E2B"/>
<path d="M392.973 148.079C392.973 147.986 392.973 147.894 392.973 147.802C392.965 141.888 390.927 136.157 387.2 131.566C383.472 126.975 378.282 123.803 372.497 122.58C366.711 121.356 360.681 122.157 355.415 124.846C350.148 127.535 345.965 131.951 343.564 137.355C342.828 137.264 342.088 137.218 341.347 137.22C336.578 137.314 332.035 139.275 328.696 142.681C325.357 146.088 323.486 150.667 323.486 155.437C323.486 160.207 325.357 164.787 328.696 168.193C332.035 171.599 336.578 173.56 341.347 173.654H392.973C396.232 173.466 399.296 172.038 401.537 169.664C403.778 167.29 405.026 164.149 405.026 160.884C405.026 157.62 403.778 154.478 401.537 152.104C399.296 149.73 396.232 148.303 392.973 148.114V148.079Z" fill="#001E2B"/>
<path d="M437.934 136.318C437.934 136.226 437.934 136.133 437.934 136.048C437.924 130.14 435.888 124.414 432.166 119.825C428.444 115.237 423.26 112.064 417.481 110.837C411.701 109.609 405.676 110.402 400.41 113.081C395.144 115.76 390.957 120.165 388.546 125.559C387.811 125.471 387.07 125.426 386.329 125.424C383.906 125.377 381.499 125.812 379.247 126.706C376.994 127.6 374.943 128.935 373.213 130.631C371.483 132.327 370.108 134.352 369.17 136.585C368.232 138.819 367.749 141.219 367.749 143.641C367.749 146.064 368.232 148.463 369.17 150.697C370.108 152.931 371.483 154.955 373.213 156.652C374.943 158.348 376.994 159.682 379.247 160.576C381.499 161.47 383.906 161.906 386.329 161.858H437.934C439.673 161.959 441.414 161.703 443.052 161.107C444.688 160.51 446.185 159.586 447.452 158.39C448.72 157.195 449.729 155.753 450.418 154.153C451.108 152.554 451.464 150.83 451.464 149.088C451.464 147.346 451.108 145.622 450.418 144.023C449.729 142.424 448.72 140.982 447.452 139.786C446.185 138.591 444.688 137.666 443.052 137.07C441.414 136.474 439.673 136.218 437.934 136.318Z" fill="#001E2B"/>
<path d="M437.934 136.318C437.934 136.226 437.934 136.133 437.934 136.048C437.924 130.14 435.888 124.414 432.166 119.825C428.444 115.237 423.26 112.064 417.481 110.837C411.701 109.609 405.676 110.402 400.41 113.081C395.144 115.76 390.957 120.165 388.546 125.559C387.811 125.471 387.07 125.426 386.329 125.424C383.906 125.377 381.499 125.812 379.247 126.706C376.994 127.6 374.943 128.935 373.213 130.631C371.483 132.327 370.108 134.352 369.17 136.585C368.232 138.819 367.749 141.219 367.749 143.641C367.749 146.064 368.232 148.463 369.17 150.697C370.108 152.931 371.483 154.955 373.213 156.652C374.943 158.348 376.994 159.682 379.247 160.576C381.499 161.47 383.906 161.906 386.329 161.858H437.934C439.673 161.959 441.414 161.703 443.052 161.107C444.688 160.51 446.185 159.586 447.452 158.39C448.72 157.195 449.729 155.753 450.418 154.153C451.108 152.554 451.464 150.83 451.464 149.088C451.464 147.346 451.108 145.622 450.418 144.023C449.729 142.424 448.72 140.982 447.452 139.786C446.185 138.591 444.688 137.666 443.052 137.07C441.414 136.474 439.673 136.218 437.934 136.318Z" stroke="#001E2B" stroke-miterlimit="10"/>
<path d="M437.934 124.948C437.934 124.856 437.934 124.763 437.934 124.678C437.924 118.77 435.888 113.044 432.166 108.455C428.444 103.867 423.26 100.694 417.481 99.4666C411.701 98.2391 405.676 99.0313 400.41 101.711C395.144 104.39 390.957 108.795 388.546 114.189C387.811 114.101 387.07 114.056 386.329 114.054C383.906 114.006 381.499 114.442 379.247 115.336C376.994 116.23 374.943 117.565 373.213 119.261C371.483 120.957 370.108 122.982 369.17 125.215C368.232 127.449 367.749 129.848 367.749 132.271C367.749 134.694 368.232 137.092 369.17 139.327C370.108 141.561 371.483 143.585 373.213 145.282C374.943 146.978 376.994 148.312 379.247 149.206C381.499 150.1 383.906 150.536 386.329 150.488H437.934C439.673 150.589 441.414 150.333 443.052 149.737C444.688 149.14 446.185 148.216 447.452 147.02C448.72 145.825 449.729 144.383 450.418 142.783C451.108 141.183 451.464 139.46 451.464 137.718C451.464 135.976 451.108 134.252 450.418 132.653C449.729 131.054 448.72 129.612 447.452 128.416C446.185 127.22 444.688 126.296 443.052 125.7C441.414 125.104 439.673 124.848 437.934 124.948Z" fill="white"/>
<path d="M437.934 124.948C437.934 124.856 437.934 124.763 437.934 124.678C437.924 118.77 435.888 113.044 432.166 108.455C428.444 103.867 423.26 100.694 417.481 99.4666C411.701 98.2391 405.676 99.0313 400.41 101.711C395.144 104.39 390.957 108.795 388.546 114.189C387.811 114.101 387.07 114.056 386.329 114.054C383.906 114.006 381.499 114.442 379.247 115.336C376.994 116.23 374.943 117.565 373.213 119.261C371.483 120.957 370.108 122.982 369.17 125.215C368.232 127.449 367.749 129.848 367.749 132.271C367.749 134.694 368.232 137.092 369.17 139.327C370.108 141.561 371.483 143.585 373.213 145.282C374.943 146.978 376.994 148.312 379.247 149.206C381.499 150.1 383.906 150.536 386.329 150.488H437.934C439.673 150.589 441.414 150.333 443.052 149.737C444.688 149.14 446.185 148.216 447.452 147.02C448.72 145.825 449.729 144.383 450.418 142.783C451.108 141.183 451.464 139.46 451.464 137.718C451.464 135.976 451.108 134.252 450.418 132.653C449.729 131.054 448.72 129.612 447.452 128.416C446.185 127.22 444.688 126.296 443.052 125.7C441.414 125.104 439.673 124.848 437.934 124.948Z" stroke="#001E2B" stroke-miterlimit="10"/>
<path d="M175.38 187.177L181.399 224.996C181.399 224.996 166.32 222.033 165.097 214.337L158.979 175.963C158.979 175.963 158.815 180.227 165.971 183.901C171.486 186.715 175.38 187.177 175.38 187.177Z" fill="#001E2B"/>
<path d="M184.377 243.636L190.403 281.455C190.403 281.455 175.324 278.499 174.102 270.796L167.983 232.422C167.983 232.422 167.82 236.686 174.976 240.36C180.483 243.181 184.377 243.636 184.377 243.636Z" fill="#001E2B"/>
<path d="M193.373 300.088L199.399 337.907C199.399 337.907 184.32 334.944 183.097 327.248L176.979 288.875C176.979 288.875 176.815 293.138 183.971 296.812C189.479 299.64 193.373 300.088 193.373 300.088Z" fill="#001E2B"/>
<path d="M210.103 232.557C217.556 232.184 223.509 230.101 223.4 227.903C223.289 225.705 217.158 224.226 209.705 224.598C202.253 224.971 196.3 227.055 196.41 229.252C196.52 231.45 202.65 232.93 210.103 232.557Z" fill="#001E2B"/>
<path d="M218.528 289.296C225.973 288.955 231.928 286.899 231.827 284.703C231.726 282.508 225.609 281.005 218.164 281.345C210.719 281.686 204.765 283.742 204.866 285.938C204.966 288.133 211.083 289.636 218.528 289.296Z" fill="#001E2B"/>
</g>
<defs>
<clipPath id="clip0_302_1380">
<rect width="399.37" height="388" fill="white" transform="translate(148 40)"/>
</clipPath>
</defs>
</svg>